<?xml version="1.0" standalone="yes"?>
<svg xmlns="http://www.w3.org/2000/svg" viewBox="0 0 990 545" font-family="Helvetica, Arial, sans-serif">
  <defs>
    <marker id="arrowD" viewBox="0 0 10 10" refX="9" refY="5" markerWidth="7" markerHeight="7" orient="auto-start-reverse">
      <path d="M 0 0 L 10 5 L 0 10 z" fill="#5366cc"/>
    </marker>
    <marker id="arrowO" viewBox="0 0 10 10" refX="9" refY="5" markerWidth="7" markerHeight="7" orient="auto-start-reverse">
      <path d="M 0 0 L 10 5 L 0 10 z" fill="#FE9000"/>
    </marker>
    <marker id="arrowG" viewBox="0 0 10 10" refX="9" refY="5" markerWidth="7" markerHeight="7" orient="auto-start-reverse">
      <path d="M 0 0 L 10 5 L 0 10 z" fill="#6B6B80"/>
    </marker>
    <linearGradient id="bgGrad" x1="0%" y1="0%" x2="0%" y2="100%">
      <stop offset="0%" stop-color="#FAFAFB"/>
      <stop offset="100%" stop-color="#EFEFF3"/>
    </linearGradient>
  </defs>

  <!-- ══ IT ADMIN ══ -->
  <rect x="10" y="100" width="120" height="130" rx="10" fill="#FFFFFF" stroke="#6B6B80" stroke-width="1.5" stroke-dasharray="5 3"/>
  <circle cx="70" cy="136" r="18" fill="#6B6B80"/>
  <path d="M 24 184 C 24 166 116 166 116 184 L 116 198 L 24 198 Z" fill="#6B6B80"/>
  <text x="70" y="222" text-anchor="middle" font-size="12" font-weight="700" fill="#323151">IT Admin</text>

  <!-- ══ MACSTADIUM VDI ══ -->
  <rect x="195" y="18" width="765" height="285" rx="14" fill="url(#bgGrad)" stroke="#5366cc" stroke-width="2"/>
  <rect x="195" y="18" width="765" height="40" rx="14" fill="#323151"/>
  <rect x="195" y="44" width="765" height="14" fill="#323151"/>
  <text x="215" y="44" font-size="16" font-weight="700" fill="#FFFFFF">MacStadium VDI</text>

  <!-- ── Control Plane ── -->
  <rect x="213" y="63" width="196" height="230" rx="10" fill="#FFFFFF" stroke="#5366cc" stroke-width="2"/>
  <rect x="213" y="63" width="196" height="32" rx="10" fill="#323151"/>
  <rect x="213" y="83" width="196" height="12" fill="#323151"/>
  <text x="311" y="85" text-anchor="middle" font-size="13" font-weight="700" fill="#FFFFFF">Control Plane</text>
  <text x="311" y="128" text-anchor="middle" font-size="12" font-weight="700" fill="#323151">Management UI</text>
  <text x="311" y="146" text-anchor="middle" font-size="11" fill="#6B6B80" font-style="italic">browser access</text>
  <line x1="227" y1="156" x2="395" y2="156" stroke="#EFEFF3" stroke-width="1.5"/>
  <text x="311" y="178" text-anchor="middle" font-size="12" font-weight="700" fill="#323151">Ansible &amp; Playbooks</text>
  <text x="311" y="196" text-anchor="middle" font-size="11" fill="#6B6B80" font-style="italic">CLI access</text>
  <line x1="227" y1="206" x2="395" y2="206" stroke="#EFEFF3" stroke-width="1.5"/>
  <text x="311" y="226" text-anchor="middle" font-size="11" fill="#323151">VM lifecycle · image management</text>
  <text x="311" y="244" text-anchor="middle" font-size="11" fill="#323151">host provisioning · API</text>

  <!-- ── Mac Hosts ── -->
  <text x="705" y="88" text-anchor="middle" font-size="14" font-weight="700" fill="#323151">Mac Hosts</text>
  <text x="705" y="106" text-anchor="middle" font-size="11" fill="#6B6B80" font-style="italic">2 macOS VMs per host · Apple EULA</text>

  <!-- Host 1 -->
  <rect x="465" y="118" width="244" height="167" rx="10" fill="#FFFFFF" stroke="#5366cc" stroke-width="2"/>
  <rect x="465" y="118" width="244" height="32" rx="10" fill="#323151"/>
  <rect x="465" y="138" width="244" height="12" fill="#323151"/>
  <text x="587" y="140" text-anchor="middle" font-size="13" font-weight="700" fill="#FFFFFF">Mac Host 1</text>
  <rect x="466" y="150" width="242" height="22" fill="#FFF5E8"/>
  <text x="587" y="165" text-anchor="middle" font-size="11" font-weight="700" fill="#FE9000">Orka Engine</text>
  <rect x="475" y="179" width="98" height="98" rx="6" fill="#FFF5E8" stroke="#FE9000" stroke-width="1.5"/>
  <text x="524" y="199" text-anchor="middle" font-size="11" font-weight="700" fill="#323151">macOS VM</text>
  <text x="524" y="215" text-anchor="middle" font-size="10" fill="#323151">VDI agent</text>
  <text x="524" y="231" text-anchor="middle" font-size="10" fill="#323151">+ user apps</text>
  <text x="524" y="267" text-anchor="middle" font-size="10" fill="#6B6B80">User A</text>
  <rect x="585" y="179" width="98" height="98" rx="6" fill="#FFF5E8" stroke="#FE9000" stroke-width="1.5"/>
  <text x="634" y="199" text-anchor="middle" font-size="11" font-weight="700" fill="#323151">macOS VM</text>
  <text x="634" y="215" text-anchor="middle" font-size="10" fill="#323151">VDI agent</text>
  <text x="634" y="231" text-anchor="middle" font-size="10" fill="#323151">+ user apps</text>
  <text x="634" y="267" text-anchor="middle" font-size="10" fill="#6B6B80">User B</text>

  <!-- Host N -->
  <rect x="722" y="118" width="218" height="167" rx="10" fill="#FFFFFF" stroke="#6B6B80" stroke-width="1.5" stroke-dasharray="6 4"/>
  <rect x="722" y="118" width="218" height="32" rx="10" fill="#6B6B80"/>
  <rect x="722" y="138" width="218" height="12" fill="#6B6B80"/>
  <text x="831" y="140" text-anchor="middle" font-size="13" font-weight="700" fill="#FFFFFF">Host N (scale out)</text>
  <rect x="723" y="150" width="216" height="22" fill="#F5F5F5"/>
  <text x="831" y="165" text-anchor="middle" font-size="11" fill="#9CA3AF">Orka Engine</text>
  <text x="831" y="228" text-anchor="middle" font-size="26" fill="#BDBDBD">…</text>
  <text x="831" y="270" text-anchor="middle" font-size="11" fill="#6B6B80" font-style="italic">Add hosts to scale</text>

  <!-- ══ VDI DELIVERY ══ -->
  <rect x="449" y="355" width="416" height="123" rx="14" fill="#FFFFFF" stroke="#5366cc" stroke-width="2" stroke-dasharray="6 4"/>
  <text x="657" y="379" text-anchor="middle" font-size="15" font-weight="700" fill="#323151">VDI Delivery</text>

  <rect x="464" y="397" width="120" height="66" rx="8" fill="#FFFFFF" stroke="#5366cc" stroke-width="2"/>
  <text x="524" y="425" text-anchor="middle" font-size="12" font-weight="700" fill="#323151">Delivery</text>
  <text x="524" y="442" text-anchor="middle" font-size="12" font-weight="700" fill="#323151">Controller</text>
  <text x="524" y="456" text-anchor="middle" font-size="9" fill="#6B6B80">session brokering</text>

  <rect x="614" y="397" width="130" height="66" rx="8" fill="#FFFFFF" stroke="#5366cc" stroke-width="2"/>
  <text x="679" y="425" text-anchor="middle" font-size="12" font-weight="700" fill="#323151">VDI Client</text>
  <text x="679" y="442" text-anchor="middle" font-size="10" fill="#6B6B80">remote desktop client</text>

  <rect x="774" y="397" width="76" height="66" rx="8" fill="#FFFFFF" stroke="#6B6B80" stroke-width="1.5" stroke-dasharray="5 3"/>
  <circle cx="812" cy="415" r="9" fill="#6B6B80"/>
  <path d="M 789 440 C 789 433 835 433 835 440 L 835 447 L 789 447 Z" fill="#6B6B80"/>
  <text x="812" y="458" text-anchor="middle" font-size="11" font-weight="700" fill="#323151">User A</text>

  <line x1="584" y1="430" x2="614" y2="430" stroke="#5366cc" stroke-width="1.5" marker-end="url(#arrowD)"/>
  <line x1="744" y1="430" x2="774" y2="430" stroke="#FE9000" stroke-width="2" marker-end="url(#arrowO)"/>

  <!-- ══ ARROWS ══ -->
  <line x1="130" y1="136" x2="213" y2="136" stroke="#6B6B80" stroke-width="1.5" stroke-dasharray="4 3" marker-end="url(#arrowG)"/>
  <text x="171" y="129" text-anchor="middle" font-size="10" fill="#6B6B80">Browser</text>

  <line x1="130" y1="190" x2="213" y2="190" stroke="#6B6B80" stroke-width="1.5" stroke-dasharray="4 3" marker-end="url(#arrowG)"/>
  <text x="171" y="183" text-anchor="middle" font-size="10" fill="#6B6B80">CLI</text>

  <line x1="409" y1="190" x2="460" y2="190" stroke="#6B6B80" stroke-width="1.5" stroke-dasharray="4 3" marker-end="url(#arrowG)"/>
  <text x="434" y="183" text-anchor="middle" font-size="10" fill="#6B6B80">SSH</text>

  <!-- Brokering -->
  <line x1="519" y1="277" x2="519" y2="397" stroke="#6B6B80" stroke-width="1.5" stroke-dasharray="4 3" marker-end="url(#arrowG)"/>
  <line x1="529" y1="397" x2="529" y2="277" stroke="#6B6B80" stroke-width="1.5" stroke-dasharray="4 3" marker-end="url(#arrowG)"/>

  <!-- Remoting protocol -->
  <path d="M 548,277 V 308 H 727 V 397" fill="none" stroke="#FE9000" stroke-width="2" marker-end="url(#arrowO)"/>
  <path d="M 733,397 V 314 H 554 V 277" fill="none" stroke="#FE9000" stroke-width="2" marker-end="url(#arrowO)"/>
  <text x="648" y="334" text-anchor="middle" font-size="10" fill="#FE9000">remoting protocol</text>

  <!-- ══ LEGEND ══ -->
  <rect x="10" y="340" width="175" height="57" rx="8" fill="#FFFFFF" stroke="#E5E7EB" stroke-width="1.5"/>
  <line x1="22" y1="362" x2="54" y2="362" stroke="#FE9000" stroke-width="2" marker-end="url(#arrowO)"/>
  <text x="62" y="366" font-size="11" fill="#374151">Session / data flow</text>
  <line x1="22" y1="387" x2="54" y2="387" stroke="#6B6B80" stroke-width="1.5" stroke-dasharray="4 3" marker-end="url(#arrowG)"/>
  <text x="62" y="391" font-size="11" fill="#374151">Management / control</text>

</svg>
